<?xml version="1.0" standalone="no"?>
<!DOCTYPE svg PUBLIC "-//W3C//DTD SVG 20010904//EN"
 "http://www.w3.org/TR/2001/REC-SVG-20010904/DTD/svg10.dtd">
<svg version="1.0" xmlns="http://www.w3.org/2000/svg"
 width="512.000000pt" height="512.000000pt" viewBox="0 0 512.000000 512.000000"
 preserveAspectRatio="xMidYMid meet">

<g transform="translate(0.000000,512.000000) scale(0.100000,-0.100000)"
fill="#000000" stroke="none">
<path d="M4077 4286 c-32 -14 -106 -49 -165 -79 -192 -98 -319 -129 -682 -167
-107 -11 -233 -29 -279 -40 -153 -37 -276 -117 -352 -229 -19 -28 -36 -50 -39
-50 -3 0 -20 22 -39 50 -76 111 -201 193 -354 229 -45 11 -170 29 -277 40
-365 38 -488 69 -690 170 -154 78 -186 90 -232 90 -45 0 -93 -22 -108 -50 -5
-10 -123 -320 -260 -687 -270 -721 -271 -724 -230 -803 31 -62 14 -53 600
-296 l34 -15 -49 -28 c-28 -16 -56 -39 -63 -50 -13 -22 -242 -1399 -242 -1456
0 -44 41 -92 83 -100 42 -8 183 43 372 135 177 86 285 158 505 335 235 190
332 261 410 300 132 66 144 68 492 73 346 4 419 -2 527 -45 97 -38 201 -109
440 -301 117 -94 252 -197 299 -229 183 -123 541 -281 609 -268 44 8 83 56 83
104 0 73 -228 1432 -245 1457 -8 13 -37 35 -63 48 -46 24 -47 24 -22 34 194
78 538 226 561 243 16 11 38 38 49 59 41 80 40 81 -234 814 -178 475 -262 686
-279 703 -35 36 -89 39 -160 9z m-3073 -96 c14 -5 26 -15 26 -21 0 -7 -101
-283 -225 -615 -124 -331 -225 -615 -225 -632 0 -42 41 -74 185 -143 228 -109
421 -155 811 -194 310 -31 377 -41 484 -72 195 -56 316 -160 420 -361 43 -84
46 -87 80 -87 33 0 36 3 76 82 99 195 216 300 397 358 107 34 204 50 462 75
448 43 665 97 916 226 96 50 129 81 129 123 -1 14 -104 301 -229 636 l-229
610 34 14 c19 7 40 11 47 8 14 -5 507 -1321 507 -1354 0 -12 -10 -33 -22 -46
-16 -17 -303 -141 -918 -397 -508 -211 -917 -386 -945 -406 -75 -51 -128 -66
-225 -66 -97 0 -150 16 -225 67 -29 20 -424 189 -945 405 -616 256 -902 380
-917 397 -13 13 -23 34 -23 46 0 16 321 890 489 1330 11 29 25 33 65 17z m352
-160 c124 -42 254 -65 494 -90 113 -11 236 -27 274 -35 155 -32 282 -125 350
-255 l36 -68 0 -633 0 -634 -37 45 c-125 152 -271 235 -490 279 -54 11 -197
29 -318 41 -350 34 -493 59 -670 116 -106 35 -305 129 -305 145 0 10 118 328
421 1135 l19 50 68 -33 c37 -18 108 -46 158 -63z m2853 -486 c115 -309 213
-573 217 -588 6 -25 2 -28 -107 -80 -237 -111 -394 -148 -819 -191 -299 -31
-393 -46 -503 -83 -143 -48 -264 -132 -355 -247 l-31 -40 -1 634 0 633 36 68
c68 130 195 223 350 255 38 8 141 21 229 30 208 20 351 41 450 67 84 22 253
87 289 112 15 10 23 11 28 2 3 -6 101 -264 217 -572z m-2552 -1366 c282 -117
513 -216 513 -220 0 -5 -11 -8 -24 -8 -36 0 -182 -48 -251 -82 -96 -48 -207
-125 -405 -283 -102 -81 -239 -183 -305 -226 -113 -76 -380 -217 -390 -207 -5
5 181 1158 187 1163 21 16 137 75 148 75 8 0 245 -95 527 -212z m2412 177 c56
-27 70 -40 75 -62 19 -94 186 -1137 182 -1140 -10 -11 -279 131 -391 206 -66
44 -203 146 -305 227 -102 81 -218 169 -259 197 -98 66 -239 132 -326 152 -38
9 -77 19 -85 22 -16 4 992 431 1023 432 10 1 48 -15 86 -34z m-1629 -519 c78
-22 207 -18 284 10 58 20 204 15 301 -11 149 -41 260 -109 529 -322 293 -233
495 -361 708 -448 87 -36 96 -46 97 -108 1 -45 10 -46 -154 20 -234 95 -355
170 -640 399 -313 251 -390 302 -530 351 l-80 28 -354 3 c-420 4 -461 -1 -616
-78 -102 -50 -231 -143 -479 -344 -157 -128 -263 -201 -398 -271 -98 -51 -275
-126 -330 -140 -26 -7 -26 -6 -21 37 8 63 15 71 85 97 186 70 416 211 663 406
297 236 373 287 502 340 137 55 303 67 433 31z"/>
<path d="M1248 3875 c-20 -45 7 -68 119 -98 132 -35 240 -53 474 -76 108 -11
226 -28 263 -38 66 -17 66 -17 88 5 18 18 20 26 12 49 -13 37 -84 58 -267 78
-308 33 -406 48 -517 76 -142 36 -157 36 -172 4z"/>
<path d="M1175 3680 c-28 -31 -13 -67 39 -89 96 -42 281 -75 536 -96 193 -16
367 -44 566 -92 48 -11 74 64 32 91 -55 35 -335 82 -658 111 -191 18 -343 45
-421 75 -62 25 -72 25 -94 0z"/>
<path d="M1075 3470 c-45 -50 18 -95 195 -140 103 -26 172 -36 415 -60 278
-27 387 -44 524 -80 62 -17 117 -30 122 -30 16 0 39 32 39 55 0 34 -29 50
-145 79 -139 35 -249 51 -546 81 -254 25 -402 53 -507 94 -65 26 -74 26 -97 1z"/>
<path d="M974 3255 c-27 -41 -1 -67 103 -104 160 -59 271 -79 608 -111 253
-24 404 -50 529 -90 51 -17 102 -30 113 -30 49 0 61 70 16 94 -107 54 -320 96
-667 131 -292 30 -424 54 -555 101 -53 19 -104 34 -113 34 -10 0 -25 -11 -34
-25z"/>
<path d="M885 3064 c-25 -25 -15 -65 21 -86 40 -23 149 -62 250 -87 116 -30
235 -48 464 -71 352 -35 461 -56 613 -116 74 -30 94 -34 113 -25 18 8 24 19
24 41 0 34 -17 48 -107 84 -136 56 -293 86 -598 116 -343 34 -508 65 -669 130
-89 35 -90 35 -111 14z"/>
<path d="M3710 3874 c-91 -26 -271 -53 -516 -78 -161 -17 -261 -41 -277 -67
-13 -21 -2 -65 19 -73 9 -4 60 3 113 14 53 10 170 26 261 35 296 28 529 79
557 122 14 21 14 25 -1 48 -20 31 -42 31 -156 -1z"/>
<path d="M3860 3684 c-73 -32 -203 -55 -445 -79 -365 -37 -586 -75 -642 -111
-28 -18 -30 -55 -3 -79 18 -17 23 -17 77 -2 141 38 270 58 572 87 285 27 475
67 528 112 19 15 16 52 -5 71 -23 21 -37 21 -82 1z"/>
<path d="M3945 3469 c-99 -41 -251 -69 -505 -94 -300 -30 -409 -46 -545 -81
-118 -31 -145 -46 -145 -79 0 -24 23 -55 41 -55 6 0 60 13 122 30 132 35 251
54 477 75 322 30 494 62 612 115 56 24 72 58 43 90 -22 25 -37 24 -100 -1z"/>
<path d="M3993 3245 c-125 -46 -261 -71 -554 -100 -238 -24 -378 -44 -464 -66
-70 -18 -200 -61 -212 -72 -16 -12 -17 -59 -1 -75 18 -18 42 -15 144 18 125
40 275 65 534 90 336 33 441 52 606 112 101 36 126 62 100 103 -21 32 -40 31
-153 -10z"/>
<path d="M4135 3054 c-155 -64 -338 -101 -675 -134 -312 -30 -466 -60 -603
-116 -90 -36 -107 -50 -107 -84 0 -22 6 -33 24 -41 20 -10 37 -6 98 19 155 64
279 88 627 122 117 11 252 28 300 36 170 29 364 88 428 129 27 18 31 56 7 79
-20 21 -28 20 -99 -10z"/>
</g>
</svg>
